<svg width="512" height="513" viewBox="0 0 512 513" fill="none" xmlns="http://www.w3.org/2000/svg">
<path d="M50.1727 255.702C50.1727 203.587 69.5499 156.038 101.455 119.752L37.8613 134.316C17.8361 170.263 6.38867 211.64 6.38867 255.702C6.38867 341.326 49.463 416.829 115.124 461.847L179.797 447.037C103.861 416.675 50.1727 342.498 50.1727 255.702Z" fill="url(#paint0_linear_431_102)"/>
<path d="M399.889 51.4073L336.512 65.9094C410.38 97.2277 462.217 170.386 462.217 255.702C462.217 309.298 441.76 358.08 408.22 394.737L472.893 379.926C493.906 343.331 506.001 300.936 506.001 255.702C506.001 171.25 464.038 96.6106 399.889 51.4073Z" fill="url(#paint1_linear_431_102)"/>
<path d="M256.197 436.885C356.262 436.885 437.381 355.766 437.381 255.701C437.381 155.637 356.262 74.5178 256.197 74.5178C156.132 74.5178 75.0137 155.637 75.0137 255.701C75.0137 355.766 156.132 436.885 256.197 436.885Z" fill="url(#paint2_linear_431_102)"/>
<path d="M360.487 371.286L246.846 397.205L225.124 270.605L168.473 283.533L222.131 285.138L196.891 408.591L83.25 434.509L142.709 144.344L243.946 121.233C250.981 119.629 257.306 123.609 258.324 130.459L278.072 244.995L306.305 107.009L419.945 81.0903L360.456 371.286H360.487Z" fill="#D3FF00"/>
<defs>
<linearGradient id="paint0_linear_431_102" x1="256.195" y1="461.847" x2="256.195" y2="51.4073" gradientUnits="userSpaceOnUse">
<stop stop-color="#490A8C"/>
<stop offset="0.78" stop-color="#881FDE"/>
</linearGradient>
<linearGradient id="paint1_linear_431_102" x1="421.273" y1="394.706" x2="421.273" y2="51.4073" gradientUnits="userSpaceOnUse">
<stop stop-color="#490A8C"/>
<stop offset="0.78" stop-color="#881FDE"/>
</linearGradient>
<linearGradient id="paint2_linear_431_102" x1="256.197" y1="436.854" x2="256.197" y2="74.5178" gradientUnits="userSpaceOnUse">
<stop stop-color="#DB00A7"/>
<stop offset="0.78" stop-color="#FF0677"/>
</linearGradient>
</defs>
</svg>
